<svg width="400" height="369" viewBox="0 0 400 369" fill="none" xmlns="http://www.w3.org/2000/svg">
<g clip-path="url(#clip0_12_392)">
<path d="M183.67 202.717C183.598 202.717 183.553 202.715 183.537 202.714L174.985 202.715V201.454H183.568C183.767 201.461 187.822 201.575 191.558 197.042C197.125 190.286 201.697 173.562 191.861 132.252C178.636 76.7048 189.666 27.6322 195.023 9.1122C195.287 8.19594 195.334 7.23087 195.161 6.29322C194.987 5.35558 194.599 4.47107 194.025 3.70957C193.451 2.94807 192.708 2.33044 191.854 1.90549C191.001 1.48055 190.06 1.25993 189.106 1.26106H61.3767C60.4056 1.26236 59.4485 1.49262 58.5831 1.93314C57.7176 2.37365 56.9682 3.01203 56.3957 3.79643C54.1267 6.91768 51.0128 12.9139 49.0643 23.756L47.8232 23.5331C49.814 12.4554 53.0291 6.28283 55.3757 3.05506C56.0654 2.10989 56.9682 1.34067 58.0109 0.809851C59.0535 0.279032 60.2067 0.00157053 61.3767 3.43136e-06H189.107C190.256 -0.00110222 191.389 0.265006 192.418 0.777303C193.446 1.2896 194.341 2.03405 195.033 2.95184C195.724 3.86963 196.192 4.93561 196.401 6.06556C196.61 7.19551 196.553 8.35848 196.234 9.46257C190.906 27.8865 179.932 76.7045 193.088 131.96C203.062 173.851 198.267 190.938 192.489 197.895C188.677 202.484 184.478 202.717 183.67 202.717Z" fill="#E6E6E6"/>
<path d="M160.655 225.731C160.584 225.731 160.539 225.729 160.523 225.728L151.97 225.729V224.468H160.554C160.754 224.474 164.808 224.59 168.543 220.057C174.111 213.301 178.683 196.576 168.847 155.266C155.622 99.7191 166.652 50.6464 172.008 32.1265C172.272 31.2102 172.32 30.2451 172.146 29.3075C171.973 28.3699 171.584 27.4854 171.01 26.7239C170.437 25.9623 169.694 25.3447 168.84 24.9198C167.986 24.4948 167.046 24.2742 166.092 24.2753H38.3624C37.3913 24.2766 36.4342 24.5069 35.5687 24.9474C34.7033 25.3879 33.9539 26.0263 33.3814 26.8107C31.1124 29.932 27.9985 35.9282 26.05 46.7703L24.8088 46.5474C26.7996 35.4697 30.0148 29.2971 32.3614 26.0693C33.051 25.1242 33.9538 24.355 34.9965 23.8241C36.0392 23.2933 37.1924 23.0159 38.3624 23.0143H166.092C167.241 23.0132 168.375 23.2793 169.403 23.7916C170.432 24.3039 171.327 25.0483 172.018 25.9661C172.71 26.8839 173.178 27.9499 173.387 29.0798C173.595 30.2098 173.538 31.3728 173.22 32.4769C167.891 50.9008 156.918 99.7188 170.074 154.974C180.048 196.865 175.253 213.952 169.475 220.91C165.663 225.499 161.463 225.731 160.655 225.731Z" fill="#CCCCCC"/>
<path d="M137.641 248.745C137.569 248.745 137.525 248.744 137.509 248.743L11.7477 248.744C10.5369 248.745 9.34425 248.45 8.27404 247.883C7.20382 247.317 6.28868 246.497 5.60874 245.495C4.92879 244.494 4.50475 243.34 4.37371 242.137C4.24268 240.933 4.40865 239.715 4.8571 238.591C9.42013 227.19 15.564 199.839 5.44445 144.743C-6.50498 79.685 4.19293 56.1729 9.347 49.0838C10.0367 48.1386 10.9395 47.3693 11.9822 46.8385C13.0249 46.3077 14.1781 46.0302 15.3481 46.0287H143.078C144.227 46.0276 145.36 46.2937 146.389 46.806C147.417 47.3183 148.313 48.0627 149.004 48.9805C149.695 49.8983 150.164 50.9643 150.372 52.0942C150.581 53.2242 150.524 54.3872 150.206 55.4913C144.877 73.9152 133.903 122.733 147.06 177.989C157.034 219.879 152.239 236.966 146.46 243.924C142.649 248.513 138.449 248.745 137.641 248.745ZM15.3481 47.2897C14.377 47.291 13.4199 47.5213 12.5544 47.9618C11.6889 48.4023 10.9395 49.0407 10.367 49.8251C5.30852 56.7828 -5.1765 79.9375 6.6847 144.515C16.3519 197.148 11.6634 224.98 6.02777 239.059C5.64796 239.988 5.5054 240.997 5.61295 241.995C5.7205 242.993 6.07479 243.948 6.64383 244.775C7.20808 245.609 7.96849 246.293 8.85837 246.765C9.74824 247.237 10.7404 247.483 11.7477 247.483H137.54C137.738 247.492 141.793 247.604 145.529 243.071C151.096 236.315 155.668 219.59 145.833 178.28C132.607 122.733 143.638 73.6608 148.994 55.1409C149.258 54.2246 149.305 53.2596 149.132 52.3219C148.959 51.3843 148.57 50.4998 147.996 49.7383C147.422 48.9768 146.679 48.3591 145.826 47.9342C144.972 47.5092 144.031 47.2886 143.078 47.2897H15.3481Z" fill="#2533B0"/>
<path d="M121.352 102.776H21.0981C19.7603 102.776 18.4773 102.245 17.5313 101.299C16.5853 100.353 16.0539 99.0699 16.0539 97.7321C16.0539 96.3943 16.5853 95.1113 17.5313 94.1653C18.4773 93.2193 19.7603 92.6879 21.0981 92.6879H121.352C122.69 92.6879 123.973 93.2193 124.919 94.1653C125.865 95.1113 126.397 96.3943 126.397 97.7321C126.397 99.0699 125.865 100.353 124.919 101.299C123.973 102.245 122.69 102.776 121.352 102.776Z" fill="#2533B0"/>
<path d="M121.352 124.214H21.0981C19.7603 124.214 18.4773 123.683 17.5313 122.737C16.5853 121.791 16.0539 120.508 16.0539 119.17C16.0539 117.832 16.5853 116.549 17.5313 115.603C18.4773 114.657 19.7603 114.126 21.0981 114.126H121.352C122.69 114.126 123.973 114.657 124.919 115.603C125.865 116.549 126.397 117.832 126.397 119.17C126.397 120.508 125.865 121.791 124.919 122.737C123.973 123.683 122.69 124.214 121.352 124.214Z" fill="#CCCCCC"/>
<path d="M121.352 145.652H21.0981C19.7603 145.652 18.4773 145.121 17.5313 144.175C16.5853 143.229 16.0539 141.946 16.0539 140.608C16.0539 139.27 16.5853 137.987 17.5313 137.041C18.4773 136.095 19.7603 135.564 21.0981 135.564H121.352C122.69 135.564 123.973 136.095 124.919 137.041C125.865 137.987 126.397 139.27 126.397 140.608C126.397 141.946 125.865 143.229 124.919 144.175C123.973 145.121 122.69 145.652 121.352 145.652Z" fill="#CCCCCC"/>
<path d="M128.919 167.09H28.6645C27.3267 167.09 26.0436 166.559 25.0977 165.613C24.1517 164.667 23.6202 163.384 23.6202 162.046C23.6202 160.708 24.1517 159.425 25.0977 158.479C26.0436 157.533 27.3267 157.002 28.6645 157.002H128.919C130.256 157.002 131.54 157.533 132.485 158.479C133.431 159.425 133.963 160.708 133.963 162.046C133.963 163.384 133.431 164.667 132.485 165.613C131.54 166.559 130.256 167.09 128.919 167.09Z" fill="#CCCCCC"/>
<path d="M128.919 188.528H28.6645C27.3267 188.528 26.0436 187.997 25.0977 187.051C24.1517 186.105 23.6202 184.822 23.6202 183.484C23.6202 182.146 24.1517 180.863 25.0977 179.917C26.0436 178.971 27.3267 178.44 28.6645 178.44H128.919C130.256 178.44 131.54 178.971 132.485 179.917C133.431 180.863 133.963 182.146 133.963 183.484C133.963 184.822 133.431 186.105 132.485 187.051C131.54 187.997 130.256 188.528 128.919 188.528Z" fill="#CCCCCC"/>
<path d="M68.3878 81.3384H21.0981C19.7603 81.3384 18.4773 80.8069 17.5313 79.8609C16.5853 78.915 16.0539 77.6319 16.0539 76.2941C16.0539 74.9563 16.5853 73.6733 17.5313 72.7273C18.4773 71.7813 19.7603 71.2499 21.0981 71.2499H68.3878C69.7257 71.2499 71.0087 71.7813 71.9547 72.7273C72.9006 73.6733 73.4321 74.9563 73.4321 76.2941C73.4321 77.6319 72.9006 78.915 71.9547 79.8609C71.0087 80.8069 69.7257 81.3384 68.3878 81.3384Z" fill="#2533B0"/>
<path d="M62.2816 223.095C63.2994 218.785 68.0812 217.373 71.9907 217.531C74.4608 217.698 76.9109 218.085 79.3117 218.689C81.8238 219.251 84.3115 219.917 86.7866 220.623C91.3255 221.917 95.8175 223.482 100.431 224.494C104.272 225.337 108.446 225.831 112.276 224.668C115.958 223.55 119.082 220.805 120.083 217.01C121.028 213.434 119.731 209.524 116.266 207.89C113.106 206.4 109.114 207.158 107.548 210.528C105.782 214.328 107.547 218.472 110.343 221.222C111.932 222.714 113.673 224.036 115.537 225.167C117.429 226.456 119.535 227.4 121.757 227.953C125.404 228.732 129.749 227.584 131.63 224.099C132.048 223.31 132.3 222.444 132.369 221.554C132.481 220.342 130.588 220.349 130.478 221.554C130.159 225.024 126.095 226.649 123.056 226.268C121.005 225.928 119.046 225.168 117.302 224.035C115.62 223.054 114.025 221.929 112.537 220.672C109.959 218.442 107.543 214.771 109.274 211.29C110.684 208.456 114.358 208.485 116.593 210.312C119.3 212.526 118.817 216.544 117.032 219.172C115.055 222.083 111.473 223.303 108.095 223.435C104.424 223.578 100.785 222.736 97.277 221.739C92.9184 220.502 88.6032 219.117 84.2237 217.951C81.7373 217.29 79.2318 216.693 76.7007 216.228C74.3073 215.701 71.849 215.531 69.4057 215.723C65.4587 216.179 61.4295 218.477 60.4576 222.592C60.1781 223.776 62.0015 224.281 62.2816 223.095L62.2816 223.095Z" fill="#2533B0"/>
<path d="M255.539 330.045C255.648 342.46 256.557 354.856 258.261 367.154C258.321 367.586 258.386 368.018 258.446 368.45L374.717 367.8C375.058 367.371 375.394 366.937 375.72 366.498C376.805 365.044 377.823 363.549 378.757 362.002C383.246 354.551 385.301 345.828 383.242 339.809L383.205 339.715C382.76 338.397 382.06 337.18 381.143 336.133C376.448 330.848 366.954 331.729 358.339 335.995C366.066 327.537 372.219 316.863 372.687 307.336C373.145 298.043 368.286 291.404 363.016 285.763C362.843 285.576 362.67 285.395 362.497 285.214C362.413 285.12 362.324 285.032 362.24 284.939C358.128 280.64 353.334 276.402 346.395 276.914C338.785 277.478 330.348 283.852 324.432 291.28C318.516 298.702 314.585 307.135 310.6 315.364C306.61 323.588 302.293 332.023 295.891 339.052C304.562 328.083 311.554 315.603 314.137 303.466C316.72 291.328 314.447 279.671 306.718 273.954C304.372 272.272 301.657 271.177 298.8 270.759C298.467 270.704 298.128 270.659 297.784 270.619C290.629 269.805 282.087 272.279 274.819 278.194C266.815 284.707 261.266 294.361 258.505 303.527C255.744 312.692 255.45 321.515 255.539 330.045Z" fill="#F2F2F2"/>
<path d="M331.61 368.041L333.833 368.029C334.539 367.587 335.249 367.151 335.961 366.72C336.402 366.442 336.849 366.173 337.295 365.9C344.67 361.396 352.091 357.076 359.558 352.939C367.018 348.799 374.516 344.85 382.051 341.091C382.251 341.004 382.414 340.85 382.512 340.655C382.61 340.461 382.636 340.238 382.587 340.026C382.579 339.998 382.566 339.972 382.55 339.948C382.445 339.751 382.21 339.669 381.867 339.837C380.943 340.301 380.013 340.764 379.089 341.238C371.533 345.061 364.01 349.074 356.519 353.279C349.033 357.482 341.59 361.87 334.189 366.443C334.034 366.538 333.878 366.638 333.722 366.733C333.016 367.169 332.316 367.605 331.61 368.041Z" fill="white"/>
<path d="M302.943 368.201L304.318 368.193C304.628 367.759 304.933 367.326 305.243 366.892C312.528 356.675 319.812 346.459 327.094 336.243C339.02 319.517 350.942 302.791 362.861 286.066C362.931 285.976 362.984 285.873 363.015 285.763C363.117 285.392 362.845 285.175 362.497 285.214C362.35 285.235 362.209 285.287 362.084 285.366C361.958 285.446 361.852 285.552 361.77 285.676C355.084 295.056 348.4 304.432 341.717 313.805C329.853 330.447 317.991 347.087 306.131 363.726C305.377 364.782 304.622 365.843 303.868 366.899C303.558 367.333 303.248 367.767 302.943 368.201Z" fill="white"/>
<path d="M272.314 360.217C272.384 362.534 272.538 364.814 272.738 367.073C272.777 367.505 272.816 367.937 272.855 368.369L274.297 368.361C274.253 367.929 274.209 367.497 274.17 367.065C273.865 363.802 273.649 360.501 273.62 357.111C273.581 347.713 274.497 338.335 276.353 329.121C278.326 319.201 281.159 309.471 284.82 300.041C288.662 290.097 293.295 280.476 298.673 271.27C298.774 271.12 298.819 270.939 298.8 270.759C298.741 270.348 298.193 270.226 297.784 270.619C297.703 270.696 297.633 270.784 297.577 270.881C296.912 272.025 296.258 273.172 295.617 274.323C290.438 283.58 286.004 293.234 282.359 303.195C278.887 312.655 276.246 322.4 274.465 332.319C272.798 341.52 272.077 350.869 272.314 360.217Z" fill="white"/>
<path d="M131.784 223.543C131.544 223.344 131.37 223.079 131.281 222.78C131.193 222.482 131.194 222.164 131.286 221.867C131.378 221.569 131.556 221.306 131.797 221.11C132.039 220.913 132.333 220.792 132.642 220.763C136.082 220.431 139.552 220.787 142.852 221.809L176.469 232.191C176.905 232.326 177.309 232.545 177.659 232.835C178.01 233.126 178.3 233.483 178.513 233.886C178.725 234.288 178.857 234.729 178.899 235.182C178.941 235.636 178.894 236.093 178.76 236.528C178.625 236.963 178.406 237.368 178.116 237.718C177.825 238.069 177.468 238.359 177.065 238.572C176.663 238.784 176.222 238.915 175.769 238.958C175.315 239 174.858 238.953 174.423 238.818L140.806 228.436C137.504 227.42 134.437 225.757 131.784 223.543Z" fill="#2533B0"/>
<path d="M269.584 266.671C268.671 266.288 267.853 265.71 267.187 264.976C266.522 264.243 266.025 263.372 265.733 262.426C265.44 261.48 265.358 260.482 265.494 259.501C265.629 258.52 265.977 257.58 266.515 256.749L260.752 226.615L275.438 225.47L276.325 254.945C277.662 255.94 278.588 257.392 278.927 259.024C279.266 260.657 278.994 262.357 278.163 263.802C277.332 265.248 276 266.338 274.419 266.867C272.837 267.396 271.117 267.326 269.584 266.671Z" fill="#FFB8B8"/>
<path d="M259.846 251.119L244.888 181.456C244.274 178.595 244.821 175.607 246.41 173.15C247.999 170.692 250.499 168.966 253.36 168.352C256.221 167.738 259.21 168.285 261.667 169.874C264.125 171.463 265.85 173.963 266.465 176.824L281.423 246.486C281.58 247.222 281.439 247.99 281.03 248.621C280.622 249.253 279.98 249.697 279.244 249.856L263.216 253.297C262.852 253.376 262.475 253.382 262.109 253.315C261.742 253.247 261.393 253.109 261.08 252.906C260.767 252.704 260.497 252.442 260.285 252.135C260.073 251.829 259.924 251.483 259.846 251.119Z" fill="url(#paint0_linear_12_392)"/>
<path d="M235.295 360.703H227.565L223.887 330.887L235.297 330.887L235.295 360.703Z" fill="#FFB8B8"/>
<path d="M222.043 358.494H236.951V367.881H212.657C212.657 366.648 212.899 365.428 213.371 364.289C213.843 363.15 214.534 362.115 215.406 361.244C216.277 360.372 217.312 359.681 218.451 359.209C219.59 358.737 220.811 358.494 222.043 358.494Z" fill="#2E4141"/>
<path d="M261.146 360.073H253.417L249.739 330.256L261.148 330.257L261.146 360.073Z" fill="#FFB8B8"/>
<path d="M247.895 357.864H262.803V367.25H238.508C238.508 366.018 238.751 364.797 239.223 363.658C239.695 362.519 240.386 361.485 241.258 360.613C242.129 359.741 243.164 359.05 244.303 358.578C245.442 358.107 246.662 357.864 247.895 357.864Z" fill="#2E4141"/>
<path d="M226.033 355.141C225.743 354.904 225.504 354.61 225.329 354.279C225.154 353.947 225.047 353.584 225.014 353.21L216.027 254.357C215.993 253.973 216.036 253.586 216.156 253.22C216.275 252.853 216.468 252.515 216.723 252.226C216.977 251.937 217.288 251.702 217.636 251.537C217.984 251.371 218.362 251.279 218.747 251.264L263.817 249.574C264.207 249.559 264.596 249.626 264.959 249.768C265.323 249.911 265.653 250.127 265.929 250.403C266.205 250.678 266.421 251.008 266.564 251.372C266.707 251.735 266.773 252.124 266.759 252.514L263.156 350.988C263.13 351.677 262.854 352.333 262.379 352.834C261.905 353.335 261.264 353.646 260.578 353.709L251.49 354.536C251.113 354.57 250.733 354.528 250.373 354.414C250.012 354.299 249.678 354.113 249.39 353.868C249.103 353.622 248.867 353.321 248.697 352.983C248.527 352.645 248.427 352.276 248.402 351.898L244.231 289.339C244.228 289.219 244.201 289.101 244.152 288.991C244.103 288.881 244.033 288.782 243.945 288.7C243.857 288.618 243.754 288.554 243.641 288.512C243.528 288.471 243.408 288.452 243.288 288.457H243.284C243.164 288.452 243.043 288.472 242.931 288.514C242.818 288.556 242.714 288.621 242.627 288.704C242.539 288.787 242.469 288.886 242.42 288.997C242.371 289.107 242.345 289.226 242.343 289.347L238.611 352.328C238.574 353.002 238.296 353.64 237.828 354.128C237.36 354.615 236.733 354.918 236.061 354.983L228.122 355.777C227.749 355.815 227.372 355.779 227.014 355.67C226.655 355.561 226.322 355.381 226.033 355.141H226.033Z" fill="#2E4141"/>
<path d="M243.37 153.549C251.923 153.549 258.856 146.615 258.856 138.062C258.856 129.509 251.923 122.576 243.37 122.576C234.817 122.576 227.883 129.509 227.883 138.062C227.883 146.615 234.817 153.549 243.37 153.549Z" fill="#FFB8B8"/>
<path d="M213.547 255.026C213.271 254.713 213.069 254.342 212.954 253.941C212.839 253.54 212.815 253.118 212.883 252.706C215.742 235.328 214.131 209.784 212.275 191.414C211.791 186.542 212.599 181.627 214.619 177.166C216.638 172.705 219.797 168.855 223.777 166.003L231.865 159.071C232.402 158.615 233.088 158.373 233.793 158.389L253.885 158.963C254.61 158.982 255.299 159.28 255.81 159.793L258.915 166.669L258.947 166.692C262.647 169.412 265.615 173.006 267.586 177.153C269.558 181.3 270.47 185.871 270.243 190.457L267.286 251.578C267.248 252.289 266.946 252.96 266.439 253.459C265.931 253.959 265.256 254.25 264.545 254.277L215.775 255.991C215.743 255.991 215.712 255.992 215.681 255.992C215.277 255.993 214.877 255.907 214.509 255.74C214.141 255.573 213.813 255.33 213.547 255.026Z" fill="url(#paint1_linear_12_392)"/>
<path d="M155.049 229.52C155.025 228.53 155.218 227.547 155.615 226.64C156.011 225.733 156.602 224.923 157.346 224.269C158.089 223.615 158.967 223.132 159.917 222.853C160.868 222.575 161.867 222.509 162.846 222.659L187.982 205.068L195.038 217.999L168.507 230.871C168.146 232.499 167.201 233.938 165.85 234.915C164.499 235.892 162.837 236.34 161.178 236.173C159.519 236.007 157.979 235.238 156.849 234.011C155.72 232.785 155.079 231.187 155.049 229.52L155.049 229.52Z" fill="#FFB8B8"/>
<path d="M176.202 232.578C175.834 232.522 175.48 232.394 175.161 232.201C174.842 232.008 174.565 231.753 174.345 231.452L164.645 218.236C164.201 217.629 164.015 216.871 164.129 216.127C164.243 215.384 164.647 214.716 165.253 214.27L222.691 172.111C225.05 170.379 228.001 169.655 230.894 170.099C232.326 170.319 233.701 170.819 234.94 171.57C236.179 172.321 237.258 173.309 238.116 174.477C238.973 175.645 239.592 176.971 239.937 178.378C240.282 179.785 240.347 181.247 240.127 182.679C239.907 184.112 239.408 185.487 238.657 186.726C237.906 187.965 236.918 189.044 235.749 189.901L178.312 232.061C177.827 232.418 177.241 232.611 176.639 232.611C176.493 232.611 176.347 232.6 176.202 232.578Z" fill="url(#paint2_linear_12_392)"/>
<path d="M244.163 151.848C246.216 149.33 245.991 145.495 244.343 142.694C242.695 139.894 239.897 137.965 237.018 136.459C234.138 134.953 231.08 133.768 228.37 131.974C225.661 130.181 225.779 122.587 225.057 119.419L226.778 119.992C226.117 119.146 225.905 116.646 225.243 115.8C227.188 115.992 228.683 117.838 230.627 118.03L229.505 115.019C236.173 114.608 240.318 119.241 246.985 118.83C250.289 118.626 253.876 118.497 256.592 120.389C258.952 122.033 260.147 124.879 260.931 127.646C262.614 133.588 262.875 140.243 259.968 145.692C257.061 151.14 250.361 154.811 244.508 152.844L244.163 151.848Z" fill="#2E4141"/>
<path d="M159.138 368.229H399.37C399.537 368.229 399.697 368.163 399.815 368.045C399.934 367.926 400 367.766 400 367.599C400 367.432 399.934 367.271 399.815 367.153C399.697 367.035 399.537 366.968 399.37 366.968H159.138C158.971 366.968 158.81 367.035 158.692 367.153C158.574 367.271 158.507 367.432 158.507 367.599C158.507 367.766 158.574 367.926 158.692 368.045C158.81 368.163 158.971 368.229 159.138 368.229Z" fill="#2533B0"/>
</g>
<defs>
<linearGradient id="paint0_linear_12_392" x1="263.064" y1="168.106" x2="263.064" y2="253.361" gradientUnits="userSpaceOnUse">
<stop stop-color="#009BB9"/>
<stop offset="1" stop-color="#009BB9"/>
</linearGradient>
<linearGradient id="paint1_linear_12_392" x1="241.208" y1="158.388" x2="241.208" y2="255.992" gradientUnits="userSpaceOnUse">
<stop stop-color="#009BB9"/>
<stop offset="1" stop-color="#009BB9"/>
</linearGradient>
<linearGradient id="paint2_linear_12_392" x1="202.176" y1="169.972" x2="202.176" y2="232.611" gradientUnits="userSpaceOnUse">
<stop stop-color="#009BB9"/>
<stop offset="1" stop-color="#009BB9"/>
</linearGradient>
<clipPath id="clip0_12_392">
<rect width="400" height="368.45" fill="white"/>
</clipPath>
</defs>
</svg>
