<svg width="400" height="286" viewBox="0 0 400 286" fill="none" xmlns="http://www.w3.org/2000/svg">
<g clip-path="url(#clip0_12_804)">
<path d="M354.234 285.148C379.51 285.148 400 280.15 400 273.985C400 267.821 379.51 262.823 354.234 262.823C328.958 262.823 308.468 267.821 308.468 273.985C308.468 280.15 328.958 285.148 354.234 285.148Z" fill="#3F3D56"/>
<path d="M193.98 38.2861V186.006C193.979 187.766 193.28 189.454 192.035 190.698C190.79 191.942 189.103 192.641 187.343 192.641H127.371C126.499 192.642 125.636 192.472 124.83 192.139C124.024 191.806 123.292 191.318 122.676 190.701C122.059 190.085 121.57 189.353 121.237 188.547C120.904 187.742 120.733 186.878 120.734 186.006V38.2861C120.734 37.4145 120.906 36.5514 121.239 35.746C121.573 34.9407 122.062 34.209 122.678 33.5927C123.294 32.9763 124.026 32.4874 124.831 32.1539C125.637 31.8203 126.5 31.6486 127.371 31.6487H136.347V32.8003C136.347 34.2498 136.923 35.6399 137.948 36.6649C138.973 37.6898 140.363 38.2656 141.813 38.2656H172.312C173.762 38.2656 175.152 37.6898 176.177 36.6648C177.202 35.6399 177.778 34.2498 177.778 32.8003V31.6487H187.343C188.214 31.6484 189.078 31.8199 189.883 32.1533C190.688 32.4868 191.42 32.9757 192.037 33.5921C192.653 34.2085 193.142 34.9403 193.475 35.7458C193.809 36.5512 193.98 37.4144 193.98 38.2861Z" fill="#6C63FF"/>
<path d="M191.354 56.3379H123.368V89.4518H191.354V56.3379Z" fill="#3F3D56"/>
<path d="M150.741 79.0753C152.521 85.6542 158.617 89.7286 158.617 89.7286C158.617 89.7286 161.827 83.1367 160.047 76.5578C158.268 69.979 152.172 65.9045 152.172 65.9045C152.172 65.9045 148.961 72.4965 150.741 79.0753Z" fill="white"/>
<path d="M153.356 77.6615C158.24 82.4154 158.836 89.7233 158.836 89.7233C158.836 89.7233 151.515 89.3235 146.631 84.5696C141.748 79.8157 141.151 72.5078 141.151 72.5078C141.151 72.5078 148.473 72.9076 153.356 77.6615Z" fill="#6C63FF"/>
<path d="M166.931 79.0753C165.152 85.6542 159.056 89.7286 159.056 89.7286C159.056 89.7286 155.845 83.1367 157.625 76.5578C159.405 69.979 165.501 65.9045 165.501 65.9045C165.501 65.9045 168.711 72.4965 166.931 79.0753Z" fill="white"/>
<path d="M164.316 77.6615C159.433 82.4154 158.836 89.7233 158.836 89.7233C158.836 89.7233 166.158 89.3235 171.041 84.5696C175.925 79.8157 176.521 72.5078 176.521 72.5078C176.521 72.5078 169.2 72.9076 164.316 77.6615Z" fill="#6C63FF"/>
<path d="M185.274 107.995H129.449V111.06H185.274V107.995Z" fill="#F0F0F0"/>
<path d="M185.274 112.932H129.449V115.997H185.274V112.932Z" fill="#F0F0F0"/>
<path d="M185.274 117.869H129.449V120.934H185.274V117.869Z" fill="#F0F0F0"/>
<path d="M185.274 122.807H129.449V125.871H185.274V122.807Z" fill="#F0F0F0"/>
<path d="M167.98 149.214L155.555 140.393L146.734 152.819L159.159 161.64L167.98 149.214Z" fill="#F0F0F0"/>
<path d="M159.047 164.843C158.352 164.843 157.672 164.637 157.094 164.251C156.515 163.864 156.065 163.315 155.798 162.673C155.532 162.03 155.463 161.323 155.598 160.641C155.734 159.959 156.069 159.332 156.561 158.84C157.052 158.348 157.679 158.014 158.361 157.878C159.043 157.742 159.75 157.812 160.393 158.078C161.035 158.344 161.585 158.795 161.971 159.373C162.358 159.951 162.564 160.631 162.564 161.327C162.563 162.259 162.192 163.153 161.533 163.812C160.873 164.471 159.98 164.842 159.047 164.843ZM159.047 158.396C158.468 158.396 157.901 158.568 157.419 158.89C156.937 159.212 156.562 159.67 156.34 160.205C156.118 160.741 156.06 161.33 156.173 161.899C156.286 162.467 156.565 162.989 156.975 163.399C157.385 163.809 157.907 164.088 158.476 164.201C159.044 164.314 159.633 164.256 160.169 164.034C160.704 163.812 161.162 163.437 161.484 162.955C161.806 162.473 161.978 161.906 161.978 161.327C161.977 160.55 161.668 159.805 161.118 159.256C160.569 158.706 159.824 158.397 159.047 158.396Z" fill="#3F3D56"/>
<path d="M73.2462 6.63744V154.358C73.2454 156.118 72.5457 157.805 71.301 159.049C70.0564 160.293 68.3686 160.992 66.6087 160.992H6.63738C5.76556 160.994 4.90201 160.823 4.09622 160.49C3.29044 160.158 2.55826 159.669 1.94165 159.053C1.32504 158.436 0.836132 157.704 0.502935 156.899C0.169739 156.093 -0.00119012 155.23 -5.54226e-05 154.358V6.63744C-9.30496e-05 5.76579 0.171563 4.90267 0.505111 4.09736C0.83866 3.29205 1.32757 2.56033 1.94392 1.94398C2.56027 1.32763 3.29199 0.838723 4.09729 0.505173C4.9026 0.171623 5.76572 -3.581e-05 6.63738 3.51097e-07H15.6133V1.15168C15.6133 2.60115 16.1891 3.99126 17.214 5.01619C18.239 6.04113 19.6291 6.61694 21.0786 6.61695H51.5786C53.028 6.61693 54.4181 6.04112 55.443 5.01619C56.468 3.99125 57.0438 2.60115 57.0438 1.15168V3.51097e-07H66.6087C67.4804 -0.000283216 68.3437 0.171205 69.1491 0.504668C69.9545 0.83813 70.6863 1.32703 71.3027 1.94343C71.9191 2.55983 72.408 3.29165 72.7415 4.09707C73.075 4.90249 73.2465 5.76572 73.2462 6.63744Z" fill="#F2F2F2"/>
<path d="M65.6388 80.6603H7.03015V28.2056H65.6388V80.6603ZM7.61623 80.0743H65.0527V28.7917H7.61623V80.0743Z" fill="#3F3D56"/>
<path d="M7.51844 28.2803L7.12781 28.7173L65.1504 80.586L65.541 80.149L7.51844 28.2803Z" fill="#3F3D56"/>
<path d="M65.1508 28.2807L7.12738 80.1484L7.51801 80.5854L65.5415 28.7177L65.1508 28.2807Z" fill="#3F3D56"/>
<path d="M65.3458 95.8987H7.32318V96.4848H65.3458V95.8987Z" fill="#3F3D56"/>
<path d="M65.3458 101.174H7.32318V101.76H65.3458V101.174Z" fill="#3F3D56"/>
<path d="M65.3458 106.448H7.32318V107.034H65.3458V106.448Z" fill="#3F3D56"/>
<path d="M36.3345 111.723H7.32318V112.309H36.3345V111.723Z" fill="#3F3D56"/>
<path d="M36.3345 116.998H7.32318V117.584H36.3345V116.998Z" fill="#3F3D56"/>
<path d="M314.421 6.63744V154.358C314.42 156.118 313.721 157.805 312.476 159.049C311.231 160.293 309.543 160.992 307.784 160.992H247.812C246.94 160.994 246.077 160.823 245.271 160.49C244.465 160.158 243.733 159.669 243.116 159.053C242.5 158.436 242.011 157.704 241.678 156.899C241.345 156.093 241.174 155.23 241.175 154.358V6.63744C241.175 5.76579 241.346 4.90267 241.68 4.09736C242.013 3.29206 242.502 2.56034 243.119 1.94399C243.735 1.32764 244.467 0.838726 245.272 0.505176C246.077 0.171625 246.941 -3.48302e-05 247.812 3.53518e-07H256.788V1.15168C256.788 2.60115 257.364 3.99126 258.389 5.01619C259.414 6.04113 260.804 6.61694 262.253 6.61695H292.753C294.203 6.61693 295.593 6.04112 296.618 5.01619C297.643 3.99125 298.219 2.60115 298.219 1.15168V3.53518e-07H307.784C308.655 -0.000284192 309.518 0.171206 310.324 0.504668C311.129 0.838129 311.861 1.32703 312.478 1.94343C313.094 2.55983 313.583 3.29165 313.916 4.09706C314.25 4.90248 314.421 5.76572 314.421 6.63744Z" fill="#F2F2F2"/>
<path d="M307.107 75.6787H249.084V76.2648H307.107V75.6787Z" fill="#3F3D56"/>
<path d="M307.107 90.917H249.084V91.5031H307.107V90.917Z" fill="#3F3D56"/>
<path d="M307.107 106.155H249.084V106.741H307.107V106.155Z" fill="#3F3D56"/>
<path d="M276.547 53.4306C281.808 53.4306 286.073 49.1656 286.073 43.9045C286.073 38.6434 281.808 34.3784 276.547 34.3784C271.286 34.3784 267.021 38.6434 267.021 43.9045C267.021 49.1656 271.286 53.4306 276.547 53.4306Z" fill="#6C63FF"/>
<path d="M296.557 73.0413H292.454V82.4186H296.557V73.0413Z" fill="#6C63FF"/>
<path d="M260.513 87.9866H256.41V97.364H260.513V87.9866Z" fill="#6C63FF"/>
<path d="M284.542 102.932H280.44V112.309H284.542V102.932Z" fill="#6C63FF"/>
<path d="M277.798 54.5795C275.48 54.5795 273.213 53.892 271.286 52.604C269.358 51.316 267.856 49.4853 266.968 47.3434C266.081 45.2016 265.849 42.8447 266.301 40.5709C266.754 38.2971 267.87 36.2085 269.509 34.5692C271.149 32.9299 273.237 31.8135 275.511 31.3612C277.785 30.9089 280.142 31.1411 282.284 32.0283C284.426 32.9155 286.256 34.4179 287.544 36.3455C288.832 38.2731 289.52 40.5394 289.52 42.8577C289.516 45.9655 288.28 48.9449 286.083 51.1424C283.885 53.3398 280.906 54.5759 277.798 54.5795ZM277.798 31.7221C275.596 31.7221 273.443 32.3751 271.611 33.5988C269.78 34.8224 268.353 36.5615 267.51 38.5963C266.667 40.6311 266.447 42.8701 266.876 45.0302C267.306 47.1903 268.366 49.1745 269.924 50.7318C271.481 52.2892 273.465 53.3497 275.625 53.7794C277.786 54.2091 280.025 53.9885 282.059 53.1457C284.094 52.3029 285.833 50.8756 287.057 49.0443C288.281 47.2131 288.934 45.0601 288.934 42.8577C288.93 39.9054 287.756 37.0749 285.668 34.9873C283.581 32.8997 280.75 31.7254 277.798 31.7221V31.7221Z" fill="#3F3D56"/>
<path d="M81.1639 77.493L80.5901 77.9668L104.105 106.445L104.678 105.972L81.1639 77.493Z" fill="#3F3D56"/>
<path d="M107.251 109.672C105.301 108.542 102.6 107.371 100.472 107.02L104.016 105.754L105.93 102.514C105.872 104.67 106.51 107.543 107.251 109.672Z" fill="#3F3D56"/>
<path d="M232.969 77.4905L209.461 105.974L210.035 106.448L233.544 77.9644L232.969 77.4905Z" fill="#3F3D56"/>
<path d="M206.886 109.672C207.627 107.543 208.264 104.669 208.206 102.514L210.121 105.754L213.664 107.02C211.536 107.371 208.835 108.541 206.886 109.672Z" fill="#3F3D56"/>
<path d="M378.233 140.594C378.233 140.594 378.233 194.918 369.675 214.638L349.955 258.916C349.955 258.916 337.304 258.172 336.56 252.963L351.443 206.825L360.373 179.663L362.606 137.245L378.233 140.594Z" fill="#2F2E41"/>
<path d="M365.954 142.082L362.606 164.779L364.838 214.638L365.954 242.172C365.954 242.172 370.419 254.451 368.931 255.567L365.954 257.8C365.954 257.8 354.048 256.311 353.676 255.567C353.304 254.823 346.234 198.639 346.234 198.639C346.234 198.639 331.723 153.245 332.467 152.5C333.211 151.756 336.56 140.594 336.56 140.594L365.954 142.082Z" fill="#2F2E41"/>
<path d="M368.559 254.079L370.047 262.637C370.047 262.637 374.14 280.125 370.047 280.125C365.954 280.125 358.513 275.288 358.141 272.311C357.769 269.334 358.885 255.94 358.885 255.94L368.559 254.079Z" fill="#2F2E41"/>
<path d="M349.583 257.056C349.583 257.056 352.559 263.009 354.42 263.753C356.28 264.497 364.753 269.365 359.772 272.513C354.792 275.66 349.583 272.683 349.583 272.683L332.467 263.381C332.467 263.381 334.699 254.079 338.048 253.335C341.397 252.591 349.583 257.056 349.583 257.056Z" fill="#2F2E41"/>
<path d="M345.862 58.3634C353.26 58.3634 359.257 52.3663 359.257 44.9685C359.257 37.5706 353.26 31.5735 345.862 31.5735C338.464 31.5735 332.467 37.5706 332.467 44.9685C332.467 52.3663 338.464 58.3634 345.862 58.3634Z" fill="#FFB8B8"/>
<path d="M357.024 46.0847C357.024 46.0847 359.629 63.2005 362.234 65.433C364.838 67.6655 356.652 75.4792 352.932 75.1072C349.211 74.7351 345.118 66.5493 345.118 66.5493C345.118 66.5493 346.234 55.7589 344.374 52.7822C342.513 49.8055 357.024 46.0847 357.024 46.0847Z" fill="#FFB8B8"/>
<path d="M354.048 68.0377L360.368 62.2041C362.4 64.7592 364.935 66.8711 367.815 68.4098C372.652 71.0144 358.513 97.8043 358.513 97.8043L335.816 69.526C335.816 69.526 343.035 64.7274 345.379 62.8478L354.048 68.0377Z" fill="url(#paint0_linear_12_804)"/>
<path d="M357.769 90.7347C357.769 90.7347 367.741 73.3513 366.661 67.7178C366.661 67.7178 381.21 71.3864 381.954 76.2234C382.698 81.0605 374.884 98.5484 374.884 98.5484C374.884 98.5484 381.21 142.826 377.489 143.198C373.768 143.57 336.56 143.942 335.816 142.082C335.072 140.222 336.56 134.64 334.327 132.78C332.095 130.92 329.49 132.036 330.607 129.059C331.723 126.083 336.56 122.362 335.072 120.129C333.583 117.897 333.211 118.641 333.583 117.153C333.955 115.664 332.839 95.9438 332.839 95.9438C332.839 95.9438 325.025 74.363 326.886 72.8747C328.746 71.3864 338.505 67.7178 338.505 67.7178L357.769 90.7347Z" fill="url(#paint1_linear_12_804)"/>
<path d="M387.535 148.78C387.535 148.78 386.419 163.663 380.094 162.919C373.768 162.175 381.21 146.175 381.21 146.175L387.535 148.78Z" fill="#FFB8B8"/>
<path d="M332.095 148.408C332.095 148.408 334.327 157.338 336.932 156.593V146.175L335.816 144.315L332.095 148.408Z" fill="#FFB8B8"/>
<path d="M356.787 46.8955C356.752 46.5102 356.62 46.1398 356.405 45.8183C356.187 45.5734 355.905 45.3946 355.591 45.3024C354.761 45.0452 353.866 45.092 353.067 45.4343C352.268 45.7767 351.617 46.3922 351.231 47.1707C350.887 47.9199 350.722 48.8848 349.969 49.2186C349.093 49.6066 348.121 48.7807 347.777 47.8866C347.433 46.9925 347.424 45.9792 346.965 45.1382C346.421 44.141 345.321 43.5533 344.21 43.3177C343.289 43.1224 342.162 43.0201 341.747 42.1753C341.612 41.8526 341.555 41.5031 341.578 41.1543C341.588 39.9106 341.813 38.678 342.243 37.511C338.598 36.783 335.356 40.3404 331.639 40.3978C331.168 40.4252 330.697 40.333 330.271 40.1298C329.447 39.6893 329.088 38.7128 328.84 37.8114C328.576 36.854 328.358 35.8853 328.188 34.9054L329.378 35.4514C329.047 34.8173 328.865 34.1156 328.848 33.4003C329.462 33.3362 330.083 33.3886 330.678 33.5547L330.765 31.4211C331.684 32.5873 333.518 32.1774 334.902 31.6376C337.572 30.5957 340.229 29.4681 343.031 28.8668C345.834 28.2656 348.838 28.2213 351.489 29.3136C354.274 30.4614 356.421 32.7442 358.312 35.0888C359.361 36.3884 360.374 37.7543 360.941 39.3252C361.648 41.4521 361.64 43.7522 360.918 45.8742C360.308 47.7845 359.174 50.0952 357.647 51.4189C357.113 50.0668 357.041 48.342 356.787 46.8955Z" fill="#2F2E41"/>
<path d="M331.351 71.7585L326.514 72.8748C326.514 72.8748 320.932 78.8281 320.56 84.4094C320.188 89.9906 320.188 117.897 320.188 117.897L327.258 140.966C327.258 140.966 326.514 146.175 327.258 146.175C328.002 146.175 328.374 145.059 328.374 146.547C328.374 148.035 326.514 146.547 328.374 148.035L332.095 151.012L338.313 142.768C338.313 142.768 338.792 139.478 337.676 138.733C336.56 137.989 336.56 137.617 336.932 136.501C337.304 135.385 338.048 135.013 337.676 134.268C337.304 133.524 336.188 132.408 336.188 131.664C336.188 130.92 336.188 130.176 335.816 129.803C335.444 129.431 332.839 120.501 332.839 120.501L334.327 91.4789L331.351 71.7585Z" fill="url(#paint2_linear_12_804)"/>
<path d="M378.233 73.6189L381.954 75.4793C381.954 75.4793 387.907 93.3393 387.907 108.967C387.907 124.594 389.024 135.013 389.024 135.013C389.024 135.013 390.884 139.478 390.14 139.478C389.396 139.478 388.651 139.478 389.396 140.594C390.14 141.71 390.512 141.338 390.14 142.454C389.768 143.57 389.396 141.71 389.768 143.57C390.14 145.431 389.768 146.175 389.024 146.175C388.279 146.175 388.279 151.012 388.279 151.012L379.349 147.663C379.349 147.663 380.838 145.803 380.466 145.059C380.239 144.594 380.112 144.087 380.094 143.57C380.094 143.57 381.954 143.198 380.094 142.454C378.233 141.71 378.977 141.71 379.349 139.478C379.721 137.245 380.838 137.617 379.721 137.245C378.605 136.873 371.908 102.269 371.908 102.269L378.233 73.6189Z" fill="url(#paint3_linear_12_804)"/>
<path d="M354.042 69.2738C354.659 69.2738 355.158 68.774 355.158 68.1575C355.158 67.541 354.659 67.0413 354.042 67.0413C353.426 67.0413 352.926 67.541 352.926 68.1575C352.926 68.774 353.426 69.2738 354.042 69.2738Z" fill="#2F2E41"/>
<path d="M354.042 72.9945C354.659 72.9945 355.158 72.4947 355.158 71.8782C355.158 71.2617 354.659 70.762 354.042 70.762C353.426 70.762 352.926 71.2617 352.926 71.8782C352.926 72.4947 353.426 72.9945 354.042 72.9945Z" fill="#2F2E41"/>
</g>
<defs>
<linearGradient id="paint0_linear_12_804" x1="352.319" y1="62.2041" x2="352.319" y2="97.8043" gradientUnits="userSpaceOnUse">
<stop stop-color="#009BB9"/>
<stop offset="1" stop-color="#009BB9"/>
</linearGradient>
<linearGradient id="paint1_linear_12_804" x1="354.302" y1="67.7178" x2="354.302" y2="143.502" gradientUnits="userSpaceOnUse">
<stop stop-color="#009BB9"/>
<stop offset="1" stop-color="#009BB9"/>
</linearGradient>
<linearGradient id="paint2_linear_12_804" x1="329.302" y1="71.7585" x2="329.302" y2="151.012" gradientUnits="userSpaceOnUse">
<stop stop-color="#009BB9"/>
<stop offset="1" stop-color="#009BB9"/>
</linearGradient>
<linearGradient id="paint3_linear_12_804" x1="381.112" y1="73.6189" x2="381.112" y2="151.012" gradientUnits="userSpaceOnUse">
<stop stop-color="#009BB9"/>
<stop offset="1" stop-color="#009BB9"/>
</linearGradient>
<clipPath id="clip0_12_804">
<rect width="400" height="285.148" fill="white"/>
</clipPath>
</defs>
</svg>
