<svg width="400" height="290" viewBox="0 0 400 290" fill="none" xmlns="http://www.w3.org/2000/svg">
<g clip-path="url(#clip0_12_743)">
<path d="M185.51 279.215C185.956 282.708 187.595 285.905 189.344 288.984C189.402 289.089 189.462 289.192 189.523 289.297H207.703C208.071 289.201 208.434 289.096 208.795 288.984C210.848 288.359 212.787 287.405 214.535 286.16C221.224 281.341 223.798 272.235 222.635 264.076C221.912 259.007 219.688 253.831 215.355 251.101C213.003 249.668 210.196 249.176 207.497 249.724C207.428 249.737 207.359 249.752 207.288 249.766C206.165 249.984 205.1 250.436 204.164 251.094C203.227 251.753 202.441 252.602 201.856 253.586C199.791 257.254 201.021 261.799 202.036 265.883C203.048 269.967 203.598 274.854 200.659 277.866C201.09 276.606 201.177 275.255 200.913 273.95C200.648 272.646 200.041 271.435 199.153 270.443C198.266 269.451 197.13 268.713 195.863 268.306C194.596 267.898 193.243 267.835 191.943 268.123C191.73 268.169 191.521 268.22 191.314 268.283C190.815 268.429 190.334 268.631 189.88 268.884C186.414 270.819 185.011 275.277 185.51 279.215Z" fill="#F2F2F2"/>
<path d="M196.289 288.984C195.786 289.101 195.28 289.204 194.772 289.297H197.521C197.881 289.2 198.239 289.096 198.594 288.984C199.375 288.74 200.144 288.46 200.9 288.143C203.97 286.897 206.695 284.932 208.847 282.414C209.881 281.182 210.726 279.802 211.353 278.32C212.033 276.645 212.465 274.88 212.636 273.08C212.948 269.359 212.699 265.613 211.898 261.967C211.144 258.208 209.926 254.557 208.274 251.098C208.075 250.683 207.87 250.271 207.658 249.862C207.643 249.828 207.621 249.798 207.593 249.774C207.565 249.75 207.532 249.733 207.496 249.724C207.424 249.71 207.349 249.725 207.288 249.766C207.215 249.808 207.161 249.877 207.137 249.958C207.112 250.039 207.12 250.126 207.159 250.201C208.862 253.524 210.154 257.042 211.004 260.678C211.88 264.244 212.265 267.912 212.148 271.583C212.085 274.996 211.02 278.316 209.085 281.128C207.202 283.661 204.727 285.692 201.875 287.044C200.091 287.897 198.218 288.548 196.289 288.984Z" fill="white"/>
<path d="M190.257 289.297H191.067C191.158 289.193 191.245 289.088 191.331 288.984C193.177 286.741 194.428 284.068 194.967 281.214C195.623 277.652 195.113 273.973 193.514 270.724C193.068 269.812 192.542 268.942 191.943 268.123C191.73 268.169 191.521 268.22 191.314 268.283C193.603 271.289 194.777 274.997 194.635 278.773C194.493 282.548 193.045 286.158 190.537 288.984C190.446 289.088 190.352 289.193 190.257 289.297Z" fill="white"/>
<path d="M396.258 97.3535L314.724 126.923L279.417 29.57L360.951 0L396.258 97.3535Z" fill="#F1F1F1"/>
<path d="M396.258 97.3535L314.724 126.923L279.417 29.57L360.951 0L396.258 97.3535Z" fill="#F1F1F1"/>
<path d="M361.284 47.2347L314.668 64.1411L315.467 66.3451L362.083 49.4388L361.284 47.2347Z" fill="white"/>
<path d="M363.362 52.9652L316.746 69.8716L317.545 72.0756L364.162 55.1692L363.362 52.9652Z" fill="white"/>
<path d="M365.44 58.6957L318.824 75.6021L319.623 77.8061L366.24 60.8997L365.44 58.6957Z" fill="white"/>
<path d="M311.395 68.4705C312.24 68.4705 312.925 67.7855 312.925 66.9405C312.925 66.0954 312.24 65.4104 311.395 65.4104C310.55 65.4104 309.864 66.0954 309.864 66.9405C309.864 67.7855 310.55 68.4705 311.395 68.4705Z" fill="white"/>
<path d="M352.329 22.5424L305.712 39.4487L306.512 41.6527L353.128 24.7464L352.329 22.5424Z" fill="white"/>
<path d="M354.407 28.2728L307.791 45.1792L308.59 47.3832L355.206 30.4768L354.407 28.2728Z" fill="white"/>
<path d="M356.485 34.0033L309.869 50.9097L310.668 53.1137L357.285 36.2073L356.485 34.0033Z" fill="white"/>
<path d="M302.352 43.5384C303.197 43.5384 303.882 42.8534 303.882 42.0083C303.882 41.1633 303.197 40.4783 302.352 40.4783C301.507 40.4783 300.822 41.1633 300.822 42.0083C300.822 42.8534 301.507 43.5384 302.352 43.5384Z" fill="white"/>
<path d="M370.326 72.1669L323.71 89.0732L324.509 91.2773L371.125 74.3709L370.326 72.1669Z" fill="white"/>
<path d="M372.404 77.8973L325.788 94.8037L326.587 97.0077L373.204 80.1014L372.404 77.8973Z" fill="white"/>
<path d="M374.483 83.6278L327.866 100.534L328.666 102.738L375.282 85.8318L374.483 83.6278Z" fill="white"/>
<path d="M320.35 93.1629C321.195 93.1629 321.88 92.4779 321.88 91.6328C321.88 90.7878 321.195 90.1028 320.35 90.1028C319.505 90.1028 318.82 90.7878 318.82 91.6328C318.82 92.4779 319.505 93.1629 320.35 93.1629Z" fill="white"/>
<path d="M400 126.915H313.27V23.3567H400V126.915Z" fill="white"/>
<path d="M400 126.915H313.27V23.3567H400V126.915ZM314.8 125.385H398.47V24.8867H314.8V125.385Z" fill="#E5E5E5"/>
<path d="M370.57 61.6326H348.829C348.522 61.6322 348.228 61.5103 348.012 61.2935C347.795 61.0767 347.673 60.7827 347.673 60.4762V38.7355C347.673 38.4289 347.795 38.135 348.012 37.9182C348.228 37.7014 348.522 37.5795 348.829 37.5791H370.57C370.876 37.5795 371.17 37.7014 371.387 37.9182C371.604 38.135 371.726 38.4289 371.726 38.7355V60.4762C371.726 60.7827 371.604 61.0767 371.387 61.2935C371.17 61.5103 370.876 61.6322 370.57 61.6326ZM348.829 38.0417C348.645 38.0419 348.469 38.115 348.339 38.2451C348.208 38.3752 348.135 38.5515 348.135 38.7355V60.4762C348.135 60.6601 348.208 60.8365 348.339 60.9666C348.469 61.0966 348.645 61.1698 348.829 61.17H370.57C370.754 61.1698 370.93 61.0966 371.06 60.9666C371.19 60.8365 371.263 60.6601 371.263 60.4762V38.7355C371.263 38.5516 371.19 38.3752 371.06 38.2451C370.93 38.115 370.754 38.0419 370.57 38.0417H348.829Z" fill="#E5E5E5"/>
<path d="M364.325 64.2922H342.584C342.308 64.2919 342.044 64.1821 341.849 63.987C341.654 63.7919 341.544 63.5273 341.544 63.2514V41.5108C341.544 41.2348 341.654 40.9703 341.849 40.7752C342.044 40.58 342.308 40.4703 342.584 40.47H364.325C364.601 40.4703 364.865 40.58 365.061 40.7752C365.256 40.9703 365.365 41.2348 365.366 41.5108V63.2514C365.365 63.5273 365.256 63.7919 365.061 63.987C364.865 64.1821 364.601 64.2919 364.325 64.2922Z" fill="#6C63FF"/>
<path d="M386.97 73.5051H326.3V75.8496H386.97V73.5051Z" fill="#F1F1F1"/>
<path d="M386.97 79.6182H326.3V81.9627H386.97V79.6182Z" fill="#F1F1F1"/>
<path d="M386.97 85.731H326.3V88.0754H386.97V85.731Z" fill="#F1F1F1"/>
<path d="M386.97 96.4895H326.3V98.834H386.97V96.4895Z" fill="#F1F1F1"/>
<path d="M386.97 102.602H326.3V104.947H386.97V102.602Z" fill="#F1F1F1"/>
<path d="M386.97 108.715H326.3V111.06H386.97V108.715Z" fill="#F1F1F1"/>
<path d="M116.842 283.212H123.223L126.258 258.6L116.841 258.601L116.842 283.212Z" fill="#FFB8B8"/>
<path d="M115.214 281.129L127.78 281.128H127.781C129.905 281.129 131.941 281.972 133.443 283.474C134.945 284.976 135.789 287.013 135.789 289.136V289.397L115.215 289.397L115.214 281.129Z" fill="#2F2E41"/>
<path d="M72.154 278.842L78.3478 280.375L87.2075 257.213L78.0662 254.951L72.154 278.842Z" fill="#FFB8B8"/>
<path d="M71.0746 276.428L83.2727 279.447L83.2732 279.447C85.3348 279.958 87.1092 281.266 88.2062 283.085C89.3032 284.903 89.6328 287.083 89.1227 289.145L89.0602 289.397L69.0884 284.455L71.0746 276.428Z" fill="#2F2E41"/>
<path d="M95.7584 178.791L90.1476 210.729C90.1476 210.729 87.9897 214.613 88.8529 216.34C89.716 218.066 90.1476 218.066 88.8529 218.929C87.5581 219.793 85.8317 218.929 86.2633 221.087C86.5219 222.367 86.6664 223.667 86.6949 224.972L74.6102 266.405C74.6102 266.405 66.8415 269.858 72.4523 272.015C78.063 274.173 83.6737 275.9 84.9685 273.742C86.2632 271.584 84.9685 268.994 84.9685 268.994L104.822 221.519C104.822 221.519 107.843 217.203 107.843 214.613C107.843 212.024 117.77 193.465 117.77 193.465C117.77 193.465 118.201 212.024 118.633 213.319C119.065 214.613 117.77 217.203 117.77 218.929C117.77 220.656 116.907 220.656 117.77 221.519C118.633 222.382 118.633 232.309 118.633 232.309C118.633 232.309 113.454 270.721 116.475 271.152C119.496 271.584 128.128 270.721 128.128 268.994C128.166 268.544 128.061 268.094 127.829 267.706C127.596 267.319 127.248 267.015 126.833 266.836L132.444 234.035C132.209 232.726 132.358 231.376 132.876 230.151C133.739 228.424 133.739 228.424 133.739 227.561C133.739 226.698 133.307 226.266 133.739 225.835C134.021 225.462 134.172 225.007 134.17 224.54C134.17 224.54 133.307 221.95 133.739 221.519C134.17 221.087 143.665 188.718 140.644 184.833C137.623 180.949 95.7584 178.791 95.7584 178.791Z" fill="#2F2E41"/>
<path d="M115.061 109.87C121.258 109.87 126.282 104.846 126.282 98.6487C126.282 92.4513 121.258 87.4272 115.061 87.4272C108.864 87.4272 103.84 92.4513 103.84 98.6487C103.84 104.846 108.864 109.87 115.061 109.87Z" fill="#FFB8B8"/>
<path d="M107.133 106.775C107.71 106.388 107.732 105.502 107.539 104.784C107.261 104.095 107.087 103.369 107.024 102.629C107.106 100.626 109.864 99.823 110.022 97.8304C110.119 96.605 109.168 95.2499 109.717 94.1889C110.063 93.5189 110.869 93.2954 111.603 93.1668C114.451 92.6748 117.366 92.7139 120.2 93.2822L120.614 92.1961L122.714 93.5819C122.829 92.9079 123.762 92.8403 124.371 93.1638C124.981 93.4873 125.509 94.0459 126.174 94.1538C127.235 94.3257 128.073 93.1772 128.017 92.0722C127.859 90.9542 127.357 89.9131 126.581 89.0932C124.815 86.9054 122.672 85.0505 120.254 83.6158L120.836 82.5656L119.588 83.0669L119.451 81.8109L118.235 82.4943L118.218 81.363C116.916 82.858 114.649 82.8064 112.659 82.9412C109.331 83.0953 106.135 84.2836 103.515 86.3406C102.208 87.4084 101.137 88.7368 100.37 90.2413C99.6044 91.7458 99.1601 93.3933 99.0658 95.079C98.9528 97.719 99.8629 100.932 101.812 102.89C103.584 104.669 106.209 103.589 107.133 106.775Z" fill="#2F2E41"/>
<path d="M142.596 207.523C142.026 206.988 141.58 206.336 141.29 205.61C141 204.885 140.872 204.105 140.916 203.325C140.96 202.545 141.174 201.784 141.544 201.096C141.914 200.408 142.43 199.809 143.056 199.342L140.063 187.505L146.813 183.931L150.805 200.708C151.52 201.812 151.805 203.14 151.607 204.44C151.408 205.74 150.739 206.922 149.727 207.762C148.715 208.602 147.431 209.041 146.116 208.997C144.802 208.953 143.549 208.429 142.596 207.523V207.523Z" fill="#FFB8B8"/>
<path d="M124.555 192.203C110.914 192.204 98.3586 186.03 98.1891 185.945L98.0483 185.875L96.9037 158.404C96.5717 157.434 90.0356 138.279 88.9286 132.19C87.807 126.022 104.062 120.608 106.036 119.975L106.484 115.013L124.7 113.05L127.009 119.399L133.544 121.85C134.285 122.128 134.898 122.668 135.267 123.368C135.637 124.068 135.736 124.879 135.548 125.647L131.915 140.418L139.06 189.286L138.876 189.369C134.358 191.319 129.476 192.285 124.555 192.203Z" fill="url(#paint0_linear_12_743)"/>
<path d="M140.84 195.269L134.518 169.245L127.666 137.84L131.145 122.188H134.118C134.173 122.188 139.576 122.269 140.74 129.249C141.866 136.01 145.264 157.527 145.298 157.743L151.041 194.499L140.84 195.269Z" fill="url(#paint1_linear_12_743)"/>
<path d="M226.458 289.889H0.592821C0.435595 289.889 0.284799 289.827 0.173624 289.716C0.0624482 289.604 0 289.454 0 289.296C0 289.139 0.0624482 288.988 0.173624 288.877C0.284799 288.766 0.435595 288.704 0.592821 288.704H226.458C226.615 288.704 226.766 288.766 226.877 288.877C226.988 288.988 227.05 289.139 227.05 289.296C227.05 289.454 226.988 289.604 226.877 289.716C226.766 289.827 226.615 289.889 226.458 289.889Z" fill="#CBCBCB"/>
<path d="M129.617 230.243L71.515 192.41L118.052 120.942L176.154 158.775L129.617 230.243Z" fill="white"/>
<path d="M129.617 230.243L71.515 192.41L118.052 120.942L176.154 158.775L129.617 230.243ZM73.2585 192.042L129.248 228.5L174.41 159.144L118.42 122.685L73.2585 192.042Z" fill="#E5E5E5"/>
<path d="M112.782 161.26L111.728 162.878L144.197 184.02L145.25 182.402L112.782 161.26Z" fill="#6C63FF"/>
<path d="M110.043 165.468L108.989 167.086L141.458 188.228L142.511 186.61L110.043 165.468Z" fill="#6C63FF"/>
<path d="M107.303 169.674L106.25 171.292L138.718 192.434L139.772 190.816L107.303 169.674Z" fill="#6C63FF"/>
<path d="M109.319 161.755C110.014 161.755 110.579 161.191 110.579 160.495C110.579 159.799 110.014 159.235 109.319 159.235C108.623 159.235 108.058 159.799 108.058 160.495C108.058 161.191 108.623 161.755 109.319 161.755Z" fill="#6C63FF"/>
<path d="M124.585 143.133L123.532 144.751L156 165.893L157.054 164.275L124.585 143.133Z" fill="#E5E5E5"/>
<path d="M121.846 147.34L120.792 148.958L153.261 170.1L154.314 168.482L121.846 147.34Z" fill="#E5E5E5"/>
<path d="M119.107 151.548L118.053 153.166L150.522 174.308L151.575 172.69L119.107 151.548Z" fill="#E5E5E5"/>
<path d="M121.237 143.452C121.932 143.452 122.497 142.888 122.497 142.192C122.497 141.496 121.932 140.932 121.237 140.932C120.541 140.932 119.977 141.496 119.977 142.192C119.977 142.888 120.541 143.452 121.237 143.452Z" fill="#E5E5E5"/>
<path d="M100.864 179.563L99.8103 181.181L132.279 202.323L133.332 200.705L100.864 179.563Z" fill="#E5E5E5"/>
<path d="M98.1246 183.77L97.071 185.388L129.54 206.53L130.593 204.912L98.1246 183.77Z" fill="#E5E5E5"/>
<path d="M95.3853 187.977L94.3318 189.595L126.8 210.737L127.854 209.119L95.3853 187.977Z" fill="#E5E5E5"/>
<path d="M97.5152 179.882C98.2111 179.882 98.7752 179.318 98.7752 178.622C98.7752 177.926 98.2111 177.362 97.5152 177.362C96.8193 177.362 96.2551 177.926 96.2551 178.622C96.2551 179.318 96.8193 179.882 97.5152 179.882Z" fill="#E5E5E5"/>
<path d="M113.79 190.871C113.753 190.091 113.545 189.328 113.182 188.637C112.818 187.945 112.307 187.342 111.685 186.869C111.063 186.397 110.345 186.066 109.582 185.901C108.818 185.736 108.028 185.74 107.266 185.914L100.2 175.956L93.1013 178.774L103.278 192.696C103.654 193.957 104.479 195.035 105.597 195.728C106.715 196.42 108.049 196.678 109.345 196.453C110.64 196.228 111.809 195.535 112.628 194.507C113.447 193.478 113.861 192.184 113.79 190.871Z" fill="#FFB8B8"/>
<path d="M100.018 190.133L78.6375 162.396L86.6487 137.218C87.2357 130.888 91.1968 129.12 91.3654 129.048L91.6225 128.938L98.5937 147.528L93.4752 161.177L106.038 182.307L100.018 190.133Z" fill="url(#paint2_linear_12_743)"/>
<path d="M236.776 184.367H233.219V185.553H236.776V184.367Z" fill="#CBCBCB"/>
<path d="M336.923 185.553H329.77V184.367H336.923V185.553ZM322.616 185.553H315.463V184.367H322.616L322.616 185.553ZM308.31 185.553H301.156V184.367H308.31V185.553ZM294.003 185.553H286.85V184.367H294.003V185.553ZM279.696 185.553H272.543V184.367H279.696V185.553ZM265.389 185.553H258.236V184.367H265.389V185.553ZM251.083 185.553H243.929V184.367H251.083V185.553Z" fill="#CBCBCB"/>
<path d="M348.226 185.553H344.077V184.367H347.041V181.403H348.226V185.553Z" fill="#CBCBCB"/>
<path d="M348.226 174.207H347.041V177.805H348.226V174.207Z" fill="#CBCBCB"/>
<path d="M348.226 167.051H347.041V170.608H348.226V167.051Z" fill="#CBCBCB"/>
</g>
<defs>
<linearGradient id="paint0_linear_12_743" x1="113.967" y1="113.05" x2="113.967" y2="192.208" gradientUnits="userSpaceOnUse">
<stop stop-color="#009BB9"/>
<stop offset="1" stop-color="#009BB9"/>
</linearGradient>
<linearGradient id="paint1_linear_12_743" x1="139.354" y1="122.188" x2="139.354" y2="195.269" gradientUnits="userSpaceOnUse">
<stop stop-color="#009BB9"/>
<stop offset="1" stop-color="#009BB9"/>
</linearGradient>
<linearGradient id="paint2_linear_12_743" x1="92.338" y1="128.938" x2="92.338" y2="190.133" gradientUnits="userSpaceOnUse">
<stop stop-color="#009BB9"/>
<stop offset="1" stop-color="#009BB9"/>
</linearGradient>
<clipPath id="clip0_12_743">
<rect width="400" height="289.889" fill="white"/>
</clipPath>
</defs>
</svg>
