<svg width="400" height="344" viewBox="0 0 400 344" fill="none" xmlns="http://www.w3.org/2000/svg">
<g clip-path="url(#clip0_12_856)">
<path d="M30.0365 314.99C32.3414 315.801 34.8161 316.004 37.2222 315.58C39.6283 315.156 41.8847 314.12 43.7741 312.571C48.5856 308.532 50.0945 301.88 51.3216 295.72L54.9523 277.497L47.3513 282.731C41.8847 286.495 36.2953 290.379 32.5107 295.831C28.726 301.283 27.0749 308.725 30.1149 314.624" fill="#E6E6E6"/>
<path d="M31.2102 338.321C30.2535 331.351 29.2691 324.291 29.9418 317.246C30.538 310.989 32.4468 304.88 36.333 299.868C38.3957 297.213 40.9057 294.939 43.7501 293.146C44.4916 292.678 45.1743 293.853 44.4359 294.32C39.5142 297.43 35.7074 302.023 33.5643 307.436C31.1975 313.456 30.8175 320.018 31.2251 326.413C31.4716 330.28 31.9952 334.122 32.5211 337.959C32.5626 338.133 32.5367 338.315 32.4486 338.471C32.3605 338.626 32.2167 338.742 32.0464 338.795C31.8727 338.842 31.6875 338.818 31.531 338.729C31.3745 338.64 31.2594 338.493 31.2107 338.32L31.2102 338.321Z" fill="#F2F2F2"/>
<path d="M38.0964 327.137C39.0847 328.64 40.4435 329.862 42.0417 330.688C43.6399 331.513 45.4237 331.912 47.2212 331.848C51.8417 331.629 55.692 328.405 59.1578 325.344L69.411 316.291L62.6253 315.966C57.7454 315.733 52.7395 315.513 48.0914 317.02C43.4434 318.527 39.1568 322.147 38.307 326.958" fill="#E6E6E6"/>
<path d="M28.5059 342.328C33.1118 334.178 38.4538 325.121 48 322.226C50.654 321.423 53.437 321.136 56.1989 321.379C57.0696 321.454 56.8521 322.796 55.9833 322.721C51.3535 322.337 46.7325 323.559 42.8985 326.183C39.2089 328.694 36.3361 332.186 33.905 335.888C32.4156 338.156 31.0816 340.52 29.7475 342.881C29.3212 343.636 28.0746 343.091 28.5059 342.328Z" fill="#F2F2F2"/>
<path d="M397.049 241.721H143.118C142.335 241.72 141.585 241.409 141.032 240.856C140.479 240.302 140.167 239.552 140.166 238.77V2.95141C140.167 2.16897 140.479 1.41885 141.032 0.865578C141.585 0.312303 142.335 0.00102286 143.118 0H397.049C397.831 0.00102286 398.581 0.312303 399.134 0.865578C399.688 1.41885 399.999 2.16897 400 2.95141V238.769C399.999 239.552 399.688 240.302 399.135 240.855C398.581 241.408 397.831 241.72 397.049 241.721V241.721Z" fill="white"/>
<path d="M397.049 241.721H143.118C142.335 241.72 141.585 241.409 141.032 240.856C140.479 240.302 140.167 239.552 140.166 238.77V2.95141C140.167 2.16897 140.479 1.41885 141.032 0.865578C141.585 0.312303 142.335 0.00102286 143.118 0H397.049C397.831 0.00102286 398.581 0.312303 399.134 0.865578C399.688 1.41885 399.999 2.16897 400 2.95141V238.769C399.999 239.552 399.688 240.302 399.135 240.855C398.581 241.408 397.831 241.72 397.049 241.721V241.721ZM143.118 1.17824C142.649 1.17926 142.199 1.366 141.868 1.69758C141.536 2.02917 141.349 2.47861 141.348 2.94754V238.769C141.349 239.238 141.536 239.687 141.868 240.019C142.199 240.351 142.649 240.537 143.118 240.538H397.049C397.518 240.538 397.967 240.351 398.299 240.019C398.63 239.688 398.817 239.238 398.818 238.769V2.95141C398.817 2.48248 398.63 2.03304 398.299 1.70146C397.967 1.36987 397.518 1.18313 397.049 1.18211L143.118 1.17824Z" fill="#CACACA"/>
<path d="M263.105 61.2781C262.574 61.279 262.065 61.4905 261.69 61.8662C261.315 62.2418 261.104 62.751 261.104 63.2818C261.104 63.8126 261.315 64.3218 261.69 64.6974C262.065 65.0731 262.574 65.2846 263.105 65.2855H373.053C373.584 65.2846 374.093 65.0731 374.468 64.6974C374.843 64.3218 375.053 63.8126 375.053 63.2818C375.053 62.751 374.843 62.2418 374.468 61.8662C374.093 61.4905 373.584 61.279 373.053 61.2781H263.105Z" fill="#E4E4E4"/>
<path d="M263.105 73.3015C262.574 73.3028 262.066 73.5145 261.691 73.8901C261.316 74.2657 261.106 74.7747 261.106 75.3053C261.106 75.8358 261.316 76.3448 261.691 76.7204C262.066 77.096 262.574 77.3077 263.105 77.309H319.236C319.766 77.3077 320.275 77.096 320.649 76.7204C321.024 76.3448 321.234 75.8358 321.234 75.3053C321.234 74.7747 321.024 74.2657 320.649 73.8901C320.275 73.5145 319.766 73.3028 319.236 73.3015H263.105Z" fill="#E4E4E4"/>
<path d="M167.006 137.96C166.476 137.961 165.967 138.173 165.593 138.548C165.218 138.924 165.007 139.433 165.007 139.963C165.007 140.494 165.218 141.003 165.593 141.379C165.967 141.754 166.476 141.966 167.006 141.967H373.16C373.691 141.966 374.199 141.754 374.574 141.379C374.949 141.003 375.159 140.494 375.159 139.963C375.159 139.433 374.949 138.924 374.574 138.548C374.199 138.173 373.691 137.961 373.16 137.96H167.006Z" fill="#E4E4E4"/>
<path d="M167.006 149.983C166.476 149.984 165.967 150.196 165.593 150.572C165.218 150.947 165.007 151.456 165.007 151.987C165.007 152.517 165.218 153.026 165.593 153.402C165.967 153.778 166.476 153.989 167.006 153.991H319.343C319.873 153.989 320.382 153.778 320.756 153.402C321.131 153.026 321.341 152.517 321.341 151.987C321.341 151.456 321.131 150.947 320.756 150.572C320.382 150.196 319.873 149.984 319.343 149.983H167.006Z" fill="#E4E4E4"/>
<path d="M167.006 161.735C166.476 161.736 165.967 161.948 165.593 162.323C165.218 162.699 165.007 163.208 165.007 163.738C165.007 164.269 165.218 164.778 165.593 165.153C165.967 165.529 166.476 165.741 167.006 165.742H373.16C373.691 165.741 374.199 165.529 374.574 165.153C374.949 164.778 375.159 164.269 375.159 163.738C375.159 163.208 374.949 162.699 374.574 162.323C374.199 161.948 373.691 161.736 373.16 161.735H167.006Z" fill="#E4E4E4"/>
<path d="M167.006 173.758C166.476 173.759 165.967 173.971 165.593 174.347C165.218 174.722 165.007 175.231 165.007 175.762C165.007 176.292 165.218 176.801 165.593 177.177C165.967 177.553 166.476 177.764 167.006 177.765H319.343C319.873 177.764 320.382 177.553 320.756 177.177C321.131 176.801 321.341 176.292 321.341 175.762C321.341 175.231 321.131 174.722 320.756 174.347C320.382 173.971 319.873 173.759 319.343 173.758H167.006Z" fill="#E4E4E4"/>
<path d="M167.006 185.823C166.476 185.824 165.967 186.035 165.593 186.411C165.218 186.787 165.007 187.296 165.007 187.826C165.007 188.357 165.218 188.866 165.593 189.241C165.967 189.617 166.476 189.829 167.006 189.83H373.16C373.691 189.829 374.199 189.617 374.574 189.241C374.949 188.866 375.159 188.357 375.159 187.826C375.159 187.296 374.949 186.787 374.574 186.411C374.199 186.035 373.691 185.824 373.16 185.823H167.006Z" fill="#E4E4E4"/>
<path d="M167.006 197.846C166.476 197.847 165.967 198.059 165.593 198.435C165.218 198.81 165.007 199.319 165.007 199.85C165.007 200.38 165.218 200.889 165.593 201.265C165.967 201.64 166.476 201.852 167.006 201.853H319.343C319.873 201.852 320.382 201.64 320.756 201.265C321.131 200.889 321.341 200.38 321.341 199.85C321.341 199.319 321.131 198.81 320.756 198.435C320.382 198.059 319.873 197.847 319.343 197.846H167.006Z" fill="#E4E4E4"/>
<path d="M199.659 98.0814C193.965 98.0815 188.399 96.3932 183.665 93.2299C178.931 90.0667 175.241 85.5706 173.062 80.3103C170.883 75.05 170.313 69.2617 171.424 63.6773C172.534 58.093 175.276 52.9634 179.302 48.9373C183.328 44.9112 188.458 42.1694 194.042 41.0586C199.627 39.9477 205.415 40.5178 210.675 42.6967C215.936 44.8756 220.432 48.5654 223.595 53.2996C226.758 58.0338 228.447 63.5997 228.447 69.2934C228.438 76.9258 225.402 84.243 220.005 89.64C214.609 95.0369 207.291 98.0727 199.659 98.0814Z" fill="#6C63FF"/>
<path d="M112.272 206.931C112.222 205.88 111.943 204.853 111.453 203.922C110.963 202.991 110.275 202.179 109.438 201.542C108.6 200.906 107.633 200.461 106.605 200.238C105.577 200.016 104.513 200.022 103.487 200.256L93.9713 186.845L84.4117 190.64L98.1155 209.389C98.622 211.086 99.7335 212.539 101.239 213.471C102.745 214.403 104.541 214.751 106.286 214.448C108.031 214.145 109.604 213.212 110.707 211.827C111.81 210.442 112.367 208.699 112.272 206.931H112.272Z" fill="#A0616A"/>
<path d="M93.7264 205.937L64.9338 168.584L75.7222 134.679C76.5127 126.154 81.847 123.774 82.074 123.677L82.4202 123.528L91.808 148.563L84.9151 166.944L101.834 195.398L93.7264 205.937Z" fill="url(#paint0_linear_12_856)"/>
<path d="M193.718 90.7914C192.675 90.9223 191.672 91.2805 190.782 91.8406C189.891 92.4008 189.135 93.1494 188.565 94.0337C187.995 94.9179 187.626 95.9164 187.484 96.9587C187.342 98.001 187.43 99.0618 187.742 100.066L175.108 110.59L179.631 119.828L197.264 104.715C198.917 104.079 200.279 102.859 201.092 101.285C201.905 99.7119 202.113 97.895 201.676 96.1786C201.239 94.4623 200.187 92.966 198.721 91.9731C197.254 90.9802 195.474 90.5597 193.718 90.7914Z" fill="#FFB8B8"/>
<path d="M194.161 109.358L159.147 140.953L124.508 132.818C115.948 132.689 113.162 127.555 113.048 127.336L112.873 127.002L137.107 115.707L155.966 121.158L183.027 102.09L194.161 109.358Z" fill="url(#paint1_linear_12_856)"/>
<path d="M133.511 333.963L142.918 333.962L147.394 297.675L133.509 297.676L133.511 333.963Z" fill="#FFB8B8"/>
<path d="M161.062 342.697L131.495 342.699L131.494 331.275L152.766 331.274C154.966 331.274 157.076 332.148 158.632 333.703C160.188 335.259 161.062 337.369 161.062 339.569L161.062 342.697L161.062 342.697Z" fill="#2F2E41"/>
<path d="M95.9094 333.963L105.317 333.962L109.793 297.675L95.9082 297.676L95.9094 333.963Z" fill="#FFB8B8"/>
<path d="M123.461 342.697L93.894 342.699L93.8935 331.275L115.165 331.274C116.255 331.274 117.333 331.488 118.34 331.905C119.346 332.322 120.261 332.933 121.031 333.703C121.801 334.474 122.412 335.388 122.829 336.394C123.246 337.401 123.461 338.479 123.461 339.569L123.461 342.697Z" fill="#2F2E41"/>
<path d="M92.5635 201.511L93.3308 255.227L94.0986 325.824L110.98 324.29L119.422 226.834L130.165 324.29H147.593L149.349 226.067L143.21 204.581L92.5635 201.511Z" fill="#2F2E41"/>
<path d="M125.606 208.724C107.237 208.726 90.3291 200.412 90.1008 200.298L89.9112 200.203L88.3697 163.21C87.9227 161.902 79.1208 136.107 77.63 127.908C76.1196 119.602 98.0099 112.312 100.668 111.459L101.271 104.777L125.802 102.133L128.911 110.684L137.712 113.984C138.709 114.358 139.535 115.085 140.032 116.028C140.53 116.97 140.664 118.063 140.41 119.097L135.518 138.988L147.464 204.797L144.893 204.908C138.728 207.692 132.075 208.724 125.606 208.724Z" fill="url(#paint2_linear_12_856)"/>
<path d="M122.969 95.7365C131.528 91.0576 134.673 80.326 129.995 71.7669C125.316 63.2077 114.584 60.0621 106.025 64.741C97.4658 69.4199 94.3202 80.1515 98.9991 88.7106C103.678 97.2698 114.41 100.415 122.969 95.7365Z" fill="#FFB8B8"/>
<path d="M100.192 97.3372C103.558 100.923 109.809 98.9979 110.247 94.0996C110.282 93.7193 110.279 93.3366 110.24 92.9567C110.013 90.787 108.76 88.8171 109.06 86.5262C109.128 85.956 109.341 85.4126 109.677 84.9475C112.36 81.3557 118.656 86.554 121.187 83.3025C122.74 81.3087 120.915 78.1696 122.106 75.9413C123.678 73.0002 128.335 74.451 131.255 72.8403C134.504 71.0482 134.31 66.0633 132.171 63.0312C129.563 59.3334 124.99 57.3603 120.473 57.0759C115.957 56.7916 111.472 58.0124 107.256 59.6555C102.465 61.5224 97.715 64.1025 94.767 68.3148C91.1819 73.4374 90.8369 80.3243 92.6299 86.3143C93.7206 89.958 97.443 94.4092 100.192 97.3372Z" fill="#2F2E41"/>
<path d="M224.429 343.153H0.587511C0.431693 343.153 0.282248 343.091 0.172069 342.98C0.0618889 342.87 0 342.721 0 342.565C0 342.409 0.0618889 342.26 0.172069 342.15C0.282248 342.039 0.431693 341.978 0.587511 341.978H224.429C224.585 341.978 224.734 342.039 224.845 342.15C224.955 342.26 225.017 342.409 225.017 342.565C225.017 342.721 224.955 342.87 224.845 342.98C224.734 343.091 224.585 343.153 224.429 343.153Z" fill="#CACACA"/>
<path d="M197.996 80.1668C197.477 80.1675 196.977 79.971 196.597 79.6172L187.105 70.8002C186.706 70.4289 186.471 69.9144 186.451 69.3698C186.431 68.8252 186.628 68.295 186.999 67.8956C187.37 67.4963 187.884 67.2606 188.429 67.2402C188.973 67.2198 189.504 67.4165 189.904 67.7869L197.944 75.2553L213.852 59.3478C214.043 59.1556 214.269 59.003 214.519 58.8987C214.769 58.7944 215.037 58.7405 215.308 58.74C215.578 58.7395 215.846 58.7924 216.097 58.8958C216.347 58.9992 216.574 59.151 216.765 59.3424C216.957 59.5338 217.109 59.7612 217.212 60.0114C217.315 60.2616 217.368 60.5298 217.368 60.8005C217.367 61.0712 217.313 61.3391 217.209 61.5889C217.104 61.8387 216.952 62.0654 216.76 62.2561L199.451 79.5647C199.26 79.7559 199.033 79.9074 198.784 80.0108C198.534 80.1141 198.267 80.1671 197.996 80.1668Z" fill="white"/>
</g>
<defs>
<linearGradient id="paint0_linear_12_856" x1="83.3837" y1="123.528" x2="83.3837" y2="205.937" gradientUnits="userSpaceOnUse">
<stop stop-color="#009BB9"/>
<stop offset="1" stop-color="#009BB9"/>
</linearGradient>
<linearGradient id="paint1_linear_12_856" x1="153.517" y1="102.09" x2="153.517" y2="140.953" gradientUnits="userSpaceOnUse">
<stop stop-color="#009BB9"/>
<stop offset="1" stop-color="#009BB9"/>
</linearGradient>
<linearGradient id="paint2_linear_12_856" x1="112.51" y1="102.133" x2="112.51" y2="208.724" gradientUnits="userSpaceOnUse">
<stop stop-color="#009BB9"/>
<stop offset="1" stop-color="#009BB9"/>
</linearGradient>
<clipPath id="clip0_12_856">
<rect width="400" height="343.243" fill="white"/>
</clipPath>
</defs>
</svg>
